<svg version="1.2" xmlns="http://www.w3.org/2000/svg" xmlns:xlink="http://www.w3.org/1999/xlink" overflow="visible" preserveAspectRatio="none" viewBox="0 0 24 24" width="16" height="16"><g><defs> </defs> <rect display="none" fill="#FFA400" width="24" height="24" style="fill: rgb(181, 201, 213);" vector-effect="non-scaling-stroke"/> <rect id="_x3C_Slice_x3E__109_" display="none" fill="none" width="24" height="24" style="fill: rgb(181, 201, 213);" vector-effect="non-scaling-stroke"/> <path fill-rule="evenodd" clip-rule="evenodd" d="M12,0C5.373,0,0,5.373,0,12s5.373,12,12,12s12-5.373,12-12S18.627,0,12,0z M3,12 c0-4.971,4.029-9,9-9c1.975,0,3.795,0.644,5.278,1.722L4.722,17.278C3.644,15.795,3,13.975,3,12z M12,21 c-1.975,0-3.795-0.644-5.278-1.721L19.278,6.722C20.356,8.206,21,10.025,21,12C21,16.971,16.971,21,12,21z" vector-effect="non-scaling-stroke"/> </g></svg>