<svg version="1.2" xmlns="http://www.w3.org/2000/svg" xmlns:xlink="http://www.w3.org/1999/xlink" overflow="visible" preserveAspectRatio="none" viewBox="0 0 58.900001525878906 58.900001525878906" xml:space="preserve" height="22" width="22" y="0px" x="0px" id="Layer_1_1570206115476"><g transform="translate(1, 1)"><path d="M47.2,36l-3.3-4l0,0c-0.9-1.1-1.4-2.5-1.4-3.9V25c0-5.6-3.1-10.7-8-13.3v-0.5c0-3-2.1-5.6-5-6.1c-3.3-0.6-6.4,1.6-6.9,4.9  c-0.1,0.3-0.1,0.7-0.1,1v0.7c-4.9,2.6-8,7.7-8,13.3v3.1c0,1.4-0.5,2.8-1.4,3.8l-3.3,4c-1.9,2.4-1.6,5.8,0.7,7.8  c1,0.8,2.2,1.3,3.5,1.3h6.5c0,4.4,3.6,8,8,8s8-3.6,8-8H43c3,0,5.5-2.5,5.5-5.6C48.4,38.2,48,36.9,47.2,36z M28.5,49  c-2.2,0-4-1.8-4-4h8C32.5,47.2,30.7,49,28.5,49z M44.3,40.1C44.1,40.6,43.5,41,43,41H14c-0.8,0-1.5-0.7-1.5-1.5c0-0.4,0.1-0.7,0.4-1  l3.3-4c1.5-1.8,2.3-4.1,2.3-6.4V25c0-4.4,2.9-8.8,6.7-10.1c0.8-0.3,1.3-1,1.3-1.9v-2c0-0.6,0.3-1.1,0.7-1.5C27.5,9.1,28,9,28.5,9  c0.1,0,0.2,0,0.3,0c1,0.2,1.7,1.2,1.7,2.2V13c0,0.8,0.5,1.6,1.3,1.9c4.1,1.7,6.7,5.7,6.7,10.1v3.1c0,2.3,0.8,4.6,2.3,6.4l3.3,4  C44.5,38.9,44.6,39.6,44.3,40.1z M8.5,27c1.1,0,2-0.9,2-2c0-3.5,1-7,3-9.9l0.7-1c0.6-1,0.2-2.2-0.7-2.7c-0.9-0.5-2-0.3-2.6,0.5  l-0.7,1C7.7,16.5,6.5,20.7,6.5,25C6.5,26.1,7.4,27,8.5,27z M50.5,25c0-4.3-1.3-8.5-3.7-12.1l-0.7-1c-0.6-1-1.8-1.3-2.7-0.7  c-1,0.6-1.3,1.8-0.7,2.7c0,0.1,0.1,0.1,0.1,0.2l0.7,1c2,2.9,3,6.4,3,9.9c0,1.1,0.9,2,2,2S50.5,26.1,50.5,25z" vector-effect="non-scaling-stroke" style="fill: rgb(9, 76, 116);"/></g></svg>