<svg version="1.2" xmlns="http://www.w3.org/2000/svg" xmlns:xlink="http://www.w3.org/1999/xlink" overflow="visible" preserveAspectRatio="none" viewBox="0 0 81.19999694824219 81.19999694824219" xml:space="preserve" height="26" width="26" y="0px" x="0px" id="Layer_1_1560705193656"><g transform="translate(1, 1)"><path d="M39.6,47.7c-8.2,0-14.8-6.6-14.8-14.8s6.6-14.8,14.8-14.8c8.1,0,14.8,6.6,14.8,14.8C54.4,41.1,47.8,47.7,39.6,47.7z   M39.6,21c-6.6,0-11.9,5.4-11.9,11.9s5.4,11.9,11.9,11.9c6.6,0,11.9-5.4,11.9-11.9C51.6,26.4,46.2,21,39.6,21z" vector-effect="non-scaling-stroke" /><path d="M39.6,76.7c-20.5,0-37.1-16.7-37.1-37.1S19.1,2.5,39.6,2.5c20.5,0,37.1,16.7,37.1,37.1C76.7,60.1,60.1,76.7,39.6,76.7z   M22.4,69.2c5.2,3,11.2,4.6,17.2,4.6s12-1.6,17.2-4.6c-1.1-7.7-7.3-13.7-15-14.7c-0.7-0.1-1.5-0.1-2.3-0.1  C31,54.4,23.6,60.7,22.4,69.2z M39.6,51.6c5.4,0,10.4,2.1,14.3,5.9c2.8,2.8,4.7,6.3,5.5,10.1c3.4-2.4,6.3-5.4,8.7-8.8  c5.1-7.6,7-16.7,5.2-25.7c-1.7-9-6.9-16.8-14.5-21.9c-5.7-3.8-12.3-5.9-19.2-5.9c-11.4,0-22.1,5.6-28.4,15.1C6.1,28,4.2,37.1,6,46.1  c1.7,8.7,6.6,16.3,13.8,21.5c0.8-3.8,2.7-7.2,5.4-9.9C29,53.7,34.2,51.6,39.6,51.6z" vector-effect="non-scaling-stroke" /></g></svg>