<svg version="1.2" xmlns="http://www.w3.org/2000/svg" xmlns:xlink="http://www.w3.org/1999/xlink" overflow="visible" preserveAspectRatio="none" viewBox="0 0 19.600000381469727 24.100000381469727" xml:space="preserve" height="20" width="22" y="0px" x="0px" id="Layer_1_1562592889297"><g transform="translate(1, 1)"><g>
	<g>
		<path d="M7.2,22c-1.2,0-2.2-0.9-2.3-2.1L3.8,4.4H2.5c-0.4,0-0.6-0.3-0.6-0.6c0-0.4,0.3-0.6,0.6-0.6h5.7V2.2c0-1.1,0.9-2,2-2h3.3    c1.1,0,2,0.9,2,2v0.9h6c0.4,0,0.7,0.3,0.7,0.6c0,0.4-0.3,0.6-0.6,0.6h-1.5l-1.2,15.5c-0.1,1.2-1.1,2.1-2.3,2.1H7.2z M6.3,19.8    c0,0.5,0.5,0.9,1,0.9h9.4c0.5,0,0.9-0.4,1-0.9l1.2-15.4H5.1L6.3,19.8z M14.3,3.1V2.2c0-0.4-0.3-0.7-0.7-0.7h-3.4    c-0.4,0-0.7,0.3-0.7,0.7v0.9H14.3z" vector-effect="non-scaling-stroke"/>
	</g>
	<g>
		<path d="M11.9,18.2c-0.4,0-0.6-0.3-0.6-0.6V7.6c0-0.4,0.3-0.6,0.6-0.6c0.4,0,0.6,0.3,0.6,0.6v9.9C12.6,17.9,12.3,18.2,11.9,18.2z" vector-effect="non-scaling-stroke"/>
	</g>
	<g>
		<path d="M14.9,18.2c-0.2,0-0.3-0.1-0.5-0.2c-0.1-0.1-0.2-0.3-0.2-0.5l0.5-9.9c0-0.3,0.3-0.6,0.7-0.6c0.2,0,0.4,0.1,0.5,0.2    c0.1,0.1,0.2,0.3,0.1,0.4l-0.5,9.9C15.5,17.9,15.2,18.2,14.9,18.2L14.9,18.2z" vector-effect="non-scaling-stroke"/>
	</g>
	<g>
		<path d="M9,18.2c-0.3,0-0.6-0.2-0.6-0.6L7.8,7.6C7.8,7.3,8,7,8.4,7h0C8.7,7,9,7.2,9.1,7.6l0.5,9.9C9.6,17.9,9.3,18.2,9,18.2    L9,18.2L9,18.2z" vector-effect="non-scaling-stroke"/>
	</g>
</g></g></svg>