<svg version="1.2" xmlns="http://www.w3.org/2000/svg" xmlns:xlink="http://www.w3.org/1999/xlink" overflow="visible" preserveAspectRatio="none" viewBox="0 0 84.80000305175781 75.19999694824219" xml:space="preserve" height="16" width="18" y="0px" x="0px" id="Layer_1_1567625858397"><g transform="translate(1, 1)"><path d="M71.9,0h-61C4.9,0,0,4.9,0,10.9v51.4c0,6,4.9,10.9,10.9,10.9h61c6,0,10.9-4.9,10.9-10.9V10.9C82.8,4.9,77.9,0,71.9,0z   M10.9,5.8h61c2.8,0,5.1,2.3,5.1,5.1v9.7H5.8v-9.7C5.8,8.1,8.1,5.8,10.9,5.8z M71.9,67.4h-61c-2.8,0-5.1-2.3-5.1-5.1V26.5H77v35.8  C77,65.1,74.7,67.4,71.9,67.4z M26.2,36H15.5c-1.6,0-2.9,1.3-2.9,2.9c0,1.6,1.3,2.9,2.9,2.9h10.7c1.6,0,2.9-1.3,2.9-2.9  C29.1,37.3,27.8,36,26.2,36z M26.2,49.5H15.5c-1.6,0-2.9,1.3-2.9,2.9s1.3,2.9,2.9,2.9h10.7c1.6,0,2.9-1.3,2.9-2.9  S27.8,49.5,26.2,49.5z M46.8,36H36c-1.6,0-2.9,1.3-2.9,2.9c0,1.6,1.3,2.9,2.9,2.9h10.7c1.6,0,2.9-1.3,2.9-2.9  C49.6,37.3,48.4,36,46.8,36z M46.8,49.5H36c-1.6,0-2.9,1.3-2.9,2.9s1.3,2.9,2.9,2.9h10.7c1.6,0,2.9-1.3,2.9-2.9S48.4,49.5,46.8,49.5  z M67.3,36H56.6c-1.6,0-2.9,1.3-2.9,2.9c0,1.6,1.3,2.9,2.9,2.9h10.7c1.6,0,2.9-1.3,2.9-2.9C70.2,37.3,68.9,36,67.3,36z M67.3,49.5  H56.6c-1.6,0-2.9,1.3-2.9,2.9s1.3,2.9,2.9,2.9h10.7c1.6,0,2.9-1.3,2.9-2.9S68.9,49.5,67.3,49.5z M18.7,8.7c2.4,0,4.4,2,4.4,4.4  s-2,4.4-4.4,4.4s-4.4-2-4.4-4.4S16.3,8.7,18.7,8.7z M64.1,8.7c2.4,0,4.4,2,4.4,4.4s-2,4.4-4.4,4.4s-4.4-2-4.4-4.4S61.7,8.7,64.1,8.7  z" vector-effect="non-scaling-stroke" style="fill: rgb(107, 148, 172);"/></g></svg>