<svg version="1.2" xmlns="http://www.w3.org/2000/svg" xmlns:xlink="http://www.w3.org/1999/xlink" overflow="visible" preserveAspectRatio="none" viewBox="0 0 24.799999237060547 24.799999237060547" xml:space="preserve" height="22" width="22" y="0px" x="0px" id="Layer_1_1568803953859"><g transform="translate(1, 1)"><path d="M6.7,1.8c-1.2,0-2.1,0.9-2.1,2.1V5h-1C2.4,5,1.5,5.9,1.5,7.1v3.2v6.2c0,1.2,0.9,2.1,2.1,2.1h1.9l2,2c0.2,0.2,0.5,0.2,0.7,0  c0,0,0,0,0,0l2-2h6.1c1.2,0,2.1-0.9,2.1-2.1v-1h1c1.2,0,2.1-0.9,2.1-2.1V3.9c0-1.2-0.9-2.1-2.1-2.1L6.7,1.8z M6.7,2.9h12.6  c0.6,0,1,0.5,1,1.1v9.5c0,0.6-0.5,1-1,1h-1V7.1c0-1.2-0.9-2.1-2.1-2.1H5.7V3.9C5.7,3.3,6.1,2.9,6.7,2.9z M3.6,6h12.6  c0.6,0,1,0.5,1,1v7.9c0,0,0,0,0,0.1v1.6c0,0.6-0.5,1.1-1,1.1H9.9c-0.1,0-0.3,0.1-0.4,0.2l-1.7,1.7L6,17.8c-0.1-0.1-0.2-0.2-0.4-0.2  H3.6c-0.6,0-1-0.5-1-1.1v-6.2V7.1C2.5,6.5,3,6,3.6,6L3.6,6z M7.7,12c0,0.5-0.4,0.9-0.9,0.9S6,12.5,6,12c0-0.5,0.4-0.9,0.9-0.9  S7.7,11.5,7.7,12z M10.7,12c0,0.5-0.4,0.9-0.9,0.9S9,12.5,9,12c0-0.5,0.4-0.9,0.9-0.9S10.7,11.5,10.7,12z M13.7,12  c0,0.5-0.4,0.9-0.9,0.9c-0.5,0-0.9-0.4-0.9-0.9c0-0.5,0.4-0.9,0.9-0.9C13.3,11.1,13.7,11.5,13.7,12z" vector-effect="non-scaling-stroke" style="fill: rgb(9, 76, 116);"/></g></svg>