<svg version="1.2" xmlns="http://www.w3.org/2000/svg" xmlns:xlink="http://www.w3.org/1999/xlink" overflow="visible" preserveAspectRatio="none" viewBox="0 0 17.5 17.5" xml:space="preserve" height="24" width="24" y="0px" x="0px" id="Layer_1_1561453959171"><g transform="translate(1, 1)"><g>
	<g>
		<path d="M0.7,15.5c-0.2,0-0.4-0.1-0.5-0.2c-0.3-0.3-0.3-0.8,0-1.1l14-14c0.3-0.3,0.8-0.3,1.1,0c0.3,0.3,0.3,0.7,0,1l-14,14    C1.1,15.4,0.9,15.5,0.7,15.5z" vector-effect="non-scaling-stroke"/>
		<path d="M14.7,15.5c-0.2,0-0.4-0.1-0.5-0.2l-14-14C-0.1,1,0,0.5,0.3,0.2c0.3-0.3,0.7-0.3,1,0l14,14c0.3,0.3,0.3,0.8,0,1.1    C15.1,15.4,14.9,15.5,14.7,15.5z" vector-effect="non-scaling-stroke"/>
	</g>
</g></g></svg>