<svg version="1.2" xmlns="http://www.w3.org/2000/svg" xmlns:xlink="http://www.w3.org/1999/xlink" overflow="visible" preserveAspectRatio="none" viewBox="0 0 22.100000381469727 22.100000381469727" xml:space="preserve" height="20" width="20" y="0px" x="0px" id="Layer_1_1572357208441"><g transform="translate(1, 1)"><path d="M10,0C4.5,0,0,4.5,0,10c0,5.5,4.5,10,10,10c5.5,0,10-4.5,10-10C20.1,4.5,15.6,0,10,0z M10,18c-4.4,0-8-3.6-8-8  c0-4.4,3.6-8,8-8c4.4,0,8,3.6,8,8C18,14.4,14.4,18,10,18z M11,11.7V5.7C11,5.3,10.7,5,10.4,5H9.7C9.3,5,9,5.3,9,5.7v6.1L6.1,9.5  C5.9,9.3,5.5,9.3,5.2,9.6l-0.4,0.5c-0.2,0.3-0.2,0.7,0.1,0.9l5.1,4l5.1-4c0.3-0.2,0.3-0.6,0.1-0.9l-0.4-0.5  c-0.2-0.3-0.6-0.3-0.9-0.1L11,11.7z" vector-effect="non-scaling-stroke" style="fill: rgb(223, 90, 22);"/></g></svg>