<svg version="1.2" xmlns="http://www.w3.org/2000/svg" xmlns:xlink="http://www.w3.org/1999/xlink" overflow="visible" preserveAspectRatio="none"  viewBox="0 0 54 56" xml:space="preserve" height="24" width="24" y="0px" x="0px" id="Layer_1_1561453959171">
 <g transform="translate(0,-270.54165)">
  <path d="M4.3,277.4l0,37c0,0.3,0.2,0.6,0.5,0.7l21.3,5.9c0.4,0.1,0.7-0.2,0.7-0.6l-0.1-5.6h11.8c0.3,0,0.6-0.3,0.6-0.6v-11.6   c0-0.3-0.3-0.6-0.6-0.6h-0.8c-0.3,0-0.6,0.3-0.6,0.6v10.2H26.8l0.1-29.7c0-0.3-0.2-0.5-0.4-0.6l-15-4h25.8v10.2   c0,0.3,0.3,0.6,0.6,0.6h0.8c0.3,0,0.6-0.3,0.6-0.6v-11.6c0-0.3-0.3-0.6-0.6-0.6l-33.6,0C4.7,276.6,4.3,277,4.3,277.4z M24.9,318.6   l-18.6-5.7v-33.7l18.6,5.3C25.1,295.9,24.9,318.6,24.9,318.6L24.9,318.6z" vector-effect="non-scaling-stroke"/>
  <path d="M41.6,292.8v2H30.3c-0.3,0-0.6,0.3-0.6,0.6v0.8c0,0.3,0.3,0.6,0.6,0.6h11.3v2c0,0.4,0.5,0.7,0.8,0.5l5.9-3   c0.4-0.2,0.4-0.8,0-1l-5.9-3C42,292.1,41.6,292.4,41.6,292.8z" vector-effect="non-scaling-stroke"/>
 </g>
</svg>