<svg version="1.2" xmlns="http://www.w3.org/2000/svg" xmlns:xlink="http://www.w3.org/1999/xlink" overflow="visible" preserveAspectRatio="none" viewBox="0 0 52 52" xml:space="preserve" height="16" width="16" y="0px" x="0px" id="Layer_1_1564338549183"><g transform="translate(1, 1)"><path d="M27.1,28.8l0.1,3.3h-4v-3.3c0-1.9,1.3-3.5,3.1-3.9c5.4-1.2,4.9-8.9-0.1-9.7c-3.3-0.7-6,2-6,4.9h-4c0-5.8,5.3-9.9,10.7-8.9  C36,12.9,36.8,26.5,27.1,28.8z M25,34c-1.7,0-3,1.3-3,3s1.3,3,3,3s3-1.3,3-3S26.7,34,25,34z M50,25c0,13.8-11.2,25-25,25  S0,38.8,0,25S11.2,0,25,0S50,11.2,50,25z M46,25c0-11.6-9.4-21-21-21S4,13.4,4,25s9.4,21,21,21S46,36.6,46,25z" vector-effect="non-scaling-stroke" style="fill: rgb(181, 201, 213);"/></g></svg>