<svg version="1.2" xmlns="http://www.w3.org/2000/svg" xmlns:xlink="http://www.w3.org/1999/xlink" overflow="visible" preserveAspectRatio="none" viewBox="-4829.5 -1409.4000244140625 25.700000762939453 25.700000762939453" xml:space="preserve" height="23" width="23" y="0px" x="0px" id="Layer_1_1561736783677"><g transform="translate(1, 1)"><path d="M-4807.2-1409.4h-20.8c-0.8,0-1.5,0.7-1.5,1.5v20.8c0,0.8,0.7,1.5,1.5,1.5h11.1v-8.9h-3v-3.7h3v-2.2  c0-3.1,1.7-5.2,4.5-5.2c1.3,0,2.2,0,3,0v3.7h-1.5c-1.5,0-2.2,0.7-2.2,2.2v1.5h3.7l-0.7,3.7h-3v8.9h5.9c0.8,0,1.5-0.7,1.5-1.5v-20.8  C-4805.7-1408.7-4806.4-1409.4-4807.2-1409.4z" vector-effect="non-scaling-stroke"/></g></svg>