<svg xmlns="http://www.w3.org/2000/svg" id="Layer_1_1561734231973" width="250" height="60" overflow="visible" preserveAspectRatio="none" version="1.2" viewBox="0 0 1671.2 404.6"><g transform="translate(1 1)"><path fill="#fff" d="M1210.8 152.2v57c0 18.1 10.4 30.7 28.9 30.7 17.5 0 29.6-14.5 29.6-32.2v-55.5h22.2v106.7h-20.1l-1.3-15.8c-10.4 11.9-21.8 17.3-36.7 17.3-26.1 0-44.9-18.8-44.9-51v-57.2h22.3zM1342.5 152.2l1.5 14c7.8-13.6 19.9-16.4 31.3-16.4 10.4 0 20.3 3.7 26.3 9.1l-10.1 19.4c-5.4-4.3-10.6-6.5-18.8-6.5-15.3 0-28.7 9.5-28.7 29.2v57.7h-22.2V152.2h20.7zM1484.8 178.3c-8.4-7.8-17.5-9.9-28.1-9.9-13.6-.2-22.7 4.3-22.7 12.7.2 8.9 9.5 12.3 23.1 13.6 19.7 1.7 45.3 6 45.1 33.5-.2 19.9-17.7 33.7-45.3 33.7-17.3 0-34.6-3.9-48.6-19.7l11.7-15.8c9.9 11 24.8 15.5 37.4 15.8 10.6 0 22.5-3.9 22.7-13.8.2-9.5-8.9-13.2-24.6-14.7-20.1-1.9-43.2-8.4-43.4-32 0-23.5 24.4-32.4 44.3-32.4 16.4 0 29.2 3.7 41 14.3l-12.6 14.7z" class="st0_1561734231973" vector-effect="non-scaling-stroke"/><path fill="#fff" d="M76.9 109.9c30.6 0 54.7 14 54.7 46 0 13.6-7.1 25.8-22.3 32 19.3 5.8 27.4 24.8 27.4 37 0 35.2-28.1 46-59.8 46H3.1v-161h73.8zm-48.3 66.7h48.5c19.3 0 29-7.6 29-20.2 0-11.3-9.9-23.2-29.2-23.2H28.6v43.4zm0 70.4h48.3c14.3 0 34-4.6 34-22.3 0-17.2-19.1-25.1-33.8-25.1H28.6V247zM272.6 214.3c0 33.6-23.2 58.9-58.9 58.9-35.4 0-58.4-25.3-58.4-58.9 0-33.3 23.2-59.1 58.4-59.1 35 0 58.9 25.8 58.9 59.1zm-93.6 0c0 20.2 13.1 36.8 34.7 36.8 21.8 0 35-16.6 35-36.8 0-20-14.3-37.3-35-37.3-21.5.1-34.7 17.3-34.7 37.3zM693.1 270.9v-60.7c0-19.5-11-32.7-30.6-32.7-18.9 0-31.7 15.4-31.7 34v59.3H607V157.3h21.6l1.4 16.6c10.8-12.2 23.5-18.2 38.2-18.2 27.6 0 48.8 19.5 48.8 54.3v60.9h-23.9z" class="st1_1561734231973" vector-effect="non-scaling-stroke"/><path fill="#fff" d="M873.1 190.5l50-.2v23.9h-50zM941.3 92.3v44.4h-18.2v37.4h18.2v96.8h31.8v-99.1h25l11.3-35.1h-43.1V92.3z" class="st0_1561734231973" vector-effect="non-scaling-stroke"/><path fill="#fff" d="M1505.4 265.1c0 6.9-10.3 6.9-10.3 0 0-6.8 10.3-6.8 10.3 0zM1549.4 264.3c-4.4 4.4-9.4 6.2-15.1 6.2-11.5 0-21-7.2-21-20.9s9.4-20.9 21-20.9c5.5 0 10.1 1.7 14.4 5.9l-5.3 5.6c-2.5-2.4-5.8-3.6-9-3.6-7.2 0-12.8 5.1-12.8 13 0 8.4 5.8 12.8 12.7 12.8 3.4 0 6.9-1 9.4-3.7l5.7 5.6zM1594.5 249.6c0 11.8-8.2 20.7-20.7 20.7-12.4 0-20.5-8.9-20.5-20.7 0-11.7 8.2-20.7 20.5-20.7s20.7 9 20.7 20.7zm-32.9 0c0 7.1 4.6 12.9 12.2 12.9 7.7 0 12.3-5.8 12.3-12.9 0-7-5-13.1-12.3-13.1-7.6.1-12.2 6.1-12.2 13.1zM1630.5 269.5v-21.9c0-5.9-3.4-10.8-9.3-10.8s-9.6 4.9-9.6 10.8v21.9h-8.3v-39.9h7.8l.6 5.3c2.3-4.4 6.9-6 11.1-6 5.1 0 10.3 2.1 12.5 8 3.2-5.9 8.2-7.9 13.6-7.9 11 0 16.9 6.9 16.9 18.4v22h-8.4v-22c0-5.9-2.9-10.6-8.8-10.6s-9.7 4.8-9.7 10.7v21.9h-8.4zM551.5 155.7h23.7v113.8h-23.7z" class="st1_1561734231973" vector-effect="non-scaling-stroke"/><path fill="#fff" d="M580.7 124.1c0 8.4-6.8 15.3-15.3 15.3s-15.3-6.8-15.3-15.3c0-8.4 6.8-15.3 15.3-15.3s15.3 6.8 15.3 15.3z" class="st0_1561734231973" vector-effect="non-scaling-stroke"/><path fill="#fff" d="M1055.3 124.1s60.1.9 82 31c19.9 27.3 22.3 35.5 25 59.1 5 44.2 0 35.4 0 35.4s34.2-48.8 1.7-100.2c-23-28.8-46.8-36.7-66.7-34.5-28 1.9-42 9.2-42 9.2zM1005.9 168.4s-.8 60.1 28.7 82.8c26.8 20.7 34.8 23.3 58.4 26.6 44 6.2 35.4 1 35.4 1s-49.8 32.8-100.2-1.1c-28.1-23.8-35.4-47.8-32.6-67.7 2.6-27.7 10.3-41.6 10.3-41.6z" class="st1_1561734231973" vector-effect="non-scaling-stroke"/><path fill="#fff" d="M1045.6 262.5c-2.1-12.7 9.6-32.9 34.9-60.2 18.4-19.8 37.6-36.4 37.8-36.6l4.6 5.3c-20.8 17.9-74.5 71.5-71 92.7l-6.3-1.2z" class="st1_1561734231973" vector-effect="non-scaling-stroke"/><path fill="#fff" d="M1012.4 216.2l-5.8-3.9c.1-.2 12.9-19.3 27.7-38 27.8-35 38.8-38.7 44.6-38.4l46.4 52.4-5.3 4.6-42.8-49.8c-4.2.9-14.5 6.7-37.5 35.6-14.7 18.4-27.2 37.3-27.3 37.5z" class="st1_1561734231973" vector-effect="non-scaling-stroke"/><path fill="#fff" d="M1077.2 198.2c-34.3-32.3-34.3-48.9-34.3-48.9L1115 231s-20.8-16.8-37.8-32.8zM1024 199.5c-6.7-26.4-2.1-50.1-2.1-50.1s1.9 23.2 8.9 48.4c9.2 33.2 53.8 67.8 53.8 67.8s-50.2-25.1-60.6-66.1zM1067.7 129.1l12.9 13.4" class="st1_1561734231973" vector-effect="non-scaling-stroke"/><path fill="#fff" d="M1072.1 126.5h4v18.6h-4z" class="st1_1561734231973" transform="rotate(-44.053 1074.1 135.832)" vector-effect="non-scaling-stroke"/><path fill="#fff" d="M1037.1 302.2c-.3.1-.7.1-1 .2C528 403.7 292 135.8 292.2 136c146.9 194.5 372.4 255.4 749.9 203.6 17.9-2.5 33.5-11.9 45.8-22.8-25.6-.6-46.4-6.7-50.8-14.6z" vector-effect="non-scaling-stroke"/><path fill="#fff" fill-rule="evenodd" d="M219.9 53.8l17.2 18.7-2.8 13.8-4.1-4.9c-1.2-1.4-3.2-1.6-4.6-.4l-.3.3c-1.4 1.2-1.6 3.2-.4 4.6l6.3 7.5c.4.5 1 .8 1.5 1l-9.3 46.8 4.1 4.9 19.4-43.1 8.3-6.9s8.1 10.6 11.4 13.4c3.4 2.8 6.6 5.4 6.6 5.4l-7.4 28.8 5.2 6.3 15.9-23.1c1.5 1.2 5.3 3.9 7 3.7.1.1.2.1.2.1.1 0 .1-.1.1-.2.1 0 .1-.1.2-.1v-.2c.4-1.7-1.6-5.8-2.4-7.5l25.5-11.5-5.2-6.3-29.7 2.1s-2-3.7-4.1-7.5c-2.1-3.8-11.1-13.6-11.1-13.6l8.3-7 45.9-11.4-4.1-4.9-47.7.8c-.1-.6-.3-1.2-.7-1.7l-6.3-7.5c-1.2-1.4-3.2-1.6-4.6-.4l-.2.2c-1.4 1.2-1.6 3.2-.4 4.6l4.1 4.9-14.1.2-15.4-20.2c-2.2-2.9-15-10.6-17.5-8.5-2.5 2.1 2.8 16.1 5.2 18.8z" clip-rule="evenodd" vector-effect="non-scaling-stroke"/><path fill="#fff" d="M456.9 110.2V204l42.1-46.5h28.7v1.4l-49 52 55.7 58.4v1.6h-29l-48.5-52.4v52.4H433V110.2h23.9z" class="st1_1561734231973" vector-effect="non-scaling-stroke"/><g><path fill="#fff" d="M841.7 139.6c-.5 9.4-1.1 19.8-1.1 35.6v75.1c0 29.7-5.9 47.9-18.4 59.1-12.6 11.8-30.7 15.5-47 15.5-15.5 0-32.6-3.7-43-10.7l5.9-17.9c8.6 5.3 21.9 10.2 38 10.2 24.1 0 41.7-12.6 41.7-45.2v-14.4h-.5c-7.2 12-21.1 21.7-41.2 21.7-32.1 0-55.1-27.3-55.1-63.1 0-43.8 28.6-68.7 58.3-68.7 22.5 0 34.8 11.8 40.4 22.5h.5l1.1-19.5h20.4zm-24.3 51.1c0-4-.3-7.5-1.3-10.7-4.3-13.6-15.8-24.9-32.9-24.9-22.5 0-38.5 19-38.5 48.9 0 25.4 12.8 46.5 38.2 46.5 14.4 0 27.5-9.1 32.6-24.1 1.3-4 1.9-8.6 1.9-12.6v-23.1z" class="st1_1561734231973" vector-effect="non-scaling-stroke"/></g><path fill="#fff" d="M407.9 214.3c0 33.6-23.2 58.9-58.9 58.9-35.4 0-58.4-25.3-58.4-58.9 0-33.3 23.2-59.1 58.4-59.1 35 0 58.9 25.8 58.9 59.1zm-93.6 0c0 20.2 13.1 36.8 34.7 36.8 21.8 0 35-16.6 35-36.8 0-20-14.3-37.3-35-37.3-21.6.1-34.7 17.3-34.7 37.3z" class="st1_1561734231973" vector-effect="non-scaling-stroke"/></g></svg>