<svg version="1.2" xmlns="http://www.w3.org/2000/svg" xmlns:xlink="http://www.w3.org/1999/xlink" overflow="visible" preserveAspectRatio="none" viewBox="0 0 1671.199951171875 404.6000061035156" xml:space="preserve" y="0px" x="0px" id="Layer_1_1559132492629"><g transform="translate(1, 1)"><style type="text/css">
	.st0_1559132492629{fill:#FAAB1A;}
	.st1_1559132492629{fill:#094C74;}
	.st2_1559132492629{fill:#FFF6CF;}
	.st3_1559132492629{fill-rule:evenodd;clip-rule:evenodd;fill:#094C74;}
</style><g>
	<path d="M1210.8,152.2v57c0,18.1,10.4,30.7,28.9,30.7c17.5,0,29.6-14.5,29.6-32.2v-55.5h22.2v106.7h-20.1l-1.3-15.8   c-10.4,11.9-21.8,17.3-36.7,17.3c-26.1,0-44.9-18.8-44.9-51v-57.2H1210.8z" class="st0_1559132492629" vector-effect="non-scaling-stroke"/>
	<path d="M1342.5,152.2l1.5,14c7.8-13.6,19.9-16.4,31.3-16.4c10.4,0,20.3,3.7,26.3,9.1l-10.1,19.4   c-5.4-4.3-10.6-6.5-18.8-6.5c-15.3,0-28.7,9.5-28.7,29.2v57.7h-22.2V152.2H1342.5z" class="st0_1559132492629" vector-effect="non-scaling-stroke"/>
	<path d="M1484.8,178.3c-8.4-7.8-17.5-9.9-28.1-9.9c-13.6-0.2-22.7,4.3-22.7,12.7c0.2,8.9,9.5,12.3,23.1,13.6   c19.7,1.7,45.3,6,45.1,33.5c-0.2,19.9-17.7,33.7-45.3,33.7c-17.3,0-34.6-3.9-48.6-19.7l11.7-15.8c9.9,11,24.8,15.5,37.4,15.8   c10.6,0,22.5-3.9,22.7-13.8c0.2-9.5-8.9-13.2-24.6-14.7c-20.1-1.9-43.2-8.4-43.4-32c0-23.5,24.4-32.4,44.3-32.4   c16.4,0,29.2,3.7,41,14.3L1484.8,178.3z" class="st0_1559132492629" vector-effect="non-scaling-stroke"/>
</g><path d="M76.9,109.9c30.6,0,54.7,14,54.7,46c0,13.6-7.1,25.8-22.3,32c19.3,5.8,27.4,24.8,27.4,37  c0,35.2-28.1,46-59.8,46c-25.1,0-48.8,0-73.8,0v-161H76.9z M28.6,176.6h48.5c19.3,0,29-7.6,29-20.2c0-11.3-9.9-23.2-29.2-23.2H28.6  V176.6z M28.6,247h48.3c14.3,0,34-4.6,34-22.3c0-17.2-19.1-25.1-33.8-25.1c-16.3,0-32.2,0-48.5,0V247z" class="st1_1559132492629" vector-effect="non-scaling-stroke"/><path d="M272.6,214.3c0,33.6-23.2,58.9-58.9,58.9c-35.4,0-58.4-25.3-58.4-58.9c0-33.3,23.2-59.1,58.4-59.1  C248.7,155.2,272.6,181,272.6,214.3z M179,214.3c0,20.2,13.1,36.8,34.7,36.8c21.8,0,35-16.6,35-36.8c0-20-14.3-37.3-35-37.3  C192.2,177.1,179,194.3,179,214.3z" class="st1_1559132492629" vector-effect="non-scaling-stroke"/><path d="M693.1,270.9v-60.7c0-19.5-11-32.7-30.6-32.7c-18.9,0-31.7,15.4-31.7,34v59.3H607V157.3h21.6l1.4,16.6  c10.8-12.2,23.5-18.2,38.2-18.2c27.6,0,48.8,19.5,48.8,54.3v60.9H693.1z" class="st1_1559132492629" vector-effect="non-scaling-stroke"/><polygon points="873.1,190.5 923.1,190.3 923.1,214.2 873.1,214.2" class="st0_1559132492629" vector-effect="non-scaling-stroke"/><polygon points="941.3,92.3 941.3,136.7 923.1,136.7 923.1,174.1 941.3,174.1 941.3,270.9 973.1,270.9 973.1,171.8   998.1,171.8 1009.4,136.7 966.3,136.7 966.3,92.3" class="st0_1559132492629" vector-effect="non-scaling-stroke"/><g>
	<path d="M1505.4,265.1c0,6.9-10.3,6.9-10.3,0C1495.1,258.3,1505.4,258.3,1505.4,265.1z" class="st1_1559132492629" vector-effect="non-scaling-stroke"/>
	<path d="M1549.4,264.3c-4.4,4.4-9.4,6.2-15.1,6.2c-11.5,0-21-7.2-21-20.9c0-13.7,9.4-20.9,21-20.9   c5.5,0,10.1,1.7,14.4,5.9l-5.3,5.6c-2.5-2.4-5.8-3.6-9-3.6c-7.2,0-12.8,5.1-12.8,13c0,8.4,5.8,12.8,12.7,12.8c3.4,0,6.9-1,9.4-3.7   L1549.4,264.3z" class="st1_1559132492629" vector-effect="non-scaling-stroke"/>
	<path d="M1594.5,249.6c0,11.8-8.2,20.7-20.7,20.7c-12.4,0-20.5-8.9-20.5-20.7c0-11.7,8.2-20.7,20.5-20.7   C1586.1,228.9,1594.5,237.9,1594.5,249.6z M1561.6,249.6c0,7.1,4.6,12.9,12.2,12.9c7.7,0,12.3-5.8,12.3-12.9c0-7-5-13.1-12.3-13.1   C1566.2,236.6,1561.6,242.6,1561.6,249.6z" class="st1_1559132492629" vector-effect="non-scaling-stroke"/>
	<path d="M1630.5,269.5v-21.9c0-5.9-3.4-10.8-9.3-10.8c-5.9,0-9.6,4.9-9.6,10.8v21.9h-8.3v-39.9h7.8l0.6,5.3   c2.3-4.4,6.9-6,11.1-6c5.1,0,10.3,2.1,12.5,8c3.2-5.9,8.2-7.9,13.6-7.9c11,0,16.9,6.9,16.9,18.4v22h-8.4v-22   c0-5.9-2.9-10.6-8.8-10.6c-5.9,0-9.7,4.8-9.7,10.7v21.9H1630.5z" class="st1_1559132492629" vector-effect="non-scaling-stroke"/>
</g><rect height="113.8" width="23.7" class="st1_1559132492629" y="155.7" x="551.5" vector-effect="non-scaling-stroke"/><path d="M580.7,124.1c0,8.4-6.8,15.3-15.3,15.3s-15.3-6.8-15.3-15.3c0-8.4,6.8-15.3,15.3-15.3S580.7,115.6,580.7,124.1z" class="st0_1559132492629" vector-effect="non-scaling-stroke"/><path d="M1055.3,124.1c0,0,60.1,0.9,82,31c19.9,27.3,22.3,35.5,25,59.1c5,44.2,0,35.4,0,35.4s34.2-48.8,1.7-100.2  c-23-28.8-46.8-36.7-66.7-34.5C1069.3,116.8,1055.3,124.1,1055.3,124.1z" class="st1_1559132492629" vector-effect="non-scaling-stroke"/><path d="M1005.9,168.4c0,0-0.8,60.1,28.7,82.8c26.8,20.7,34.8,23.3,58.4,26.6c44,6.2,35.4,1,35.4,1  s-49.8,32.8-100.2-1.1c-28.1-23.8-35.4-47.8-32.6-67.7C998.2,182.3,1005.9,168.4,1005.9,168.4z" class="st1_1559132492629" vector-effect="non-scaling-stroke"/><g>
	<path d="M1045.6,262.5c-2.1-12.7,9.6-32.9,34.9-60.2c18.4-19.8,37.6-36.4,37.8-36.6l4.6,5.3   c-20.8,17.9-74.5,71.5-71,92.7L1045.6,262.5z" class="st1_1559132492629" vector-effect="non-scaling-stroke"/>
</g><g>
	<path d="M1012.4,216.2l-5.8-3.9c0.1-0.2,12.9-19.3,27.7-38c27.8-35,38.8-38.7,44.6-38.4l46.4,52.4l-5.3,4.6l-42.8-49.8   c-4.2,0.9-14.5,6.7-37.5,35.6C1025,197.1,1012.5,216,1012.4,216.2z" class="st1_1559132492629" vector-effect="non-scaling-stroke"/>
</g><g>
	<path d="M1077.2,198.2c-34.3-32.3-34.3-48.9-34.3-48.9L1115,231C1115,231,1094.2,214.2,1077.2,198.2z" class="st1_1559132492629" vector-effect="non-scaling-stroke"/>
</g><g>
	<path d="M1024,199.5c-6.7-26.4-2.1-50.1-2.1-50.1s1.9,23.2,8.9,48.4c9.2,33.2,53.8,67.8,53.8,67.8   S1034.4,240.5,1024,199.5z" class="st1_1559132492629" vector-effect="non-scaling-stroke"/>
</g><g>
	<line y2="142.5" x2="1080.6" y1="129.1" x1="1067.7" class="st1_1559132492629" vector-effect="non-scaling-stroke"/>

		<rect height="18.6" width="4" class="st1_1559132492629" transform="matrix(0.7187 -0.6953 0.6953 0.7187 207.7 785.0314)" y="126.5" x="1072.1" vector-effect="non-scaling-stroke"/>
</g><path d="M1037.1,302.2c-0.3,0.1-0.7,0.1-1,0.2C528,403.7,292,135.8,292.2,136c146.9,194.5,372.4,255.4,749.9,203.6  c17.9-2.5,33.5-11.9,45.8-22.8C1062.3,316.2,1041.5,310.1,1037.1,302.2z" class="st2_1559132492629" vector-effect="non-scaling-stroke"/><path d="M219.9,53.8l17.2,18.7l-2.8,13.8l-4.1-4.9c-1.2-1.4-3.2-1.6-4.6-0.4l-0.3,0.3c-1.4,1.2-1.6,3.2-0.4,4.6l6.3,7.5  c0.4,0.5,1,0.8,1.5,1l-9.3,46.8l4.1,4.9l19.4-43.1l8.3-6.9c0,0,8.1,10.6,11.4,13.4c3.4,2.8,6.6,5.4,6.6,5.4l-7.4,28.8l5.2,6.3  l15.9-23.1c1.5,1.2,5.3,3.9,7,3.7c0.1,0.1,0.2,0.1,0.2,0.1c0.1,0,0.1-0.1,0.1-0.2c0.1,0,0.1-0.1,0.2-0.1c0,0,0-0.1,0-0.2  c0.4-1.7-1.6-5.8-2.4-7.5l25.5-11.5l-5.2-6.3l-29.7,2.1c0,0-2-3.7-4.1-7.5c-2.1-3.8-11.1-13.6-11.1-13.6l8.3-7l45.9-11.4l-4.1-4.9  l-47.7,0.8c-0.1-0.6-0.3-1.2-0.7-1.7l-6.3-7.5c-1.2-1.4-3.2-1.6-4.6-0.4L258,54c-1.4,1.2-1.6,3.2-0.4,4.6l4.1,4.9l-14.1,0.2  l-15.4-20.2c-2.2-2.9-15-10.6-17.5-8.5l0,0l0,0l0,0l0,0C212.2,37.1,217.5,51.1,219.9,53.8z" class="st3_1559132492629" vector-effect="non-scaling-stroke"/><path d="M456.9,110.2V204l42.1-46.5h28.7v1.4l-49,52l55.7,58.4v1.6h-29l-48.5-52.4v52.4h-23.9V110.2H456.9z" class="st1_1559132492629" vector-effect="non-scaling-stroke"/><g>
	<path d="M841.7,139.6c-0.5,9.4-1.1,19.8-1.1,35.6v75.1c0,29.7-5.9,47.9-18.4,59.1c-12.6,11.8-30.7,15.5-47,15.5   c-15.5,0-32.6-3.7-43-10.7l5.9-17.9c8.6,5.3,21.9,10.2,38,10.2c24.1,0,41.7-12.6,41.7-45.2v-14.4h-0.5c-7.2,12-21.1,21.7-41.2,21.7   c-32.1,0-55.1-27.3-55.1-63.1c0-43.8,28.6-68.7,58.3-68.7c22.5,0,34.8,11.8,40.4,22.5h0.5l1.1-19.5H841.7z M817.4,190.7   c0-4-0.3-7.5-1.3-10.7c-4.3-13.6-15.8-24.9-32.9-24.9c-22.5,0-38.5,19-38.5,48.9c0,25.4,12.8,46.5,38.2,46.5   c14.4,0,27.5-9.1,32.6-24.1c1.3-4,1.9-8.6,1.9-12.6V190.7z" class="st1_1559132492629" vector-effect="non-scaling-stroke"/>
</g><path d="M407.9,214.3c0,33.6-23.2,58.9-58.9,58.9c-35.4,0-58.4-25.3-58.4-58.9c0-33.3,23.2-59.1,58.4-59.1  C384,155.2,407.9,181,407.9,214.3z M314.3,214.3c0,20.2,13.1,36.8,34.7,36.8c21.8,0,35-16.6,35-36.8c0-20-14.3-37.3-35-37.3  C327.4,177.1,314.3,194.3,314.3,214.3z" class="st1_1559132492629" vector-effect="non-scaling-stroke"/></g></svg>
