<svg version="1.2" xmlns="http://www.w3.org/2000/svg" xmlns:xlink="http://www.w3.org/1999/xlink" overflow="visible" preserveAspectRatio="none" viewBox="0 0 46 46" width="32" height="32"><g><g xmlns:default="http://www.w3.org/2000/svg">
	<g>
		<path d="M23.2,0C10.4,0,0,10.4,0,23.2c0,4.4,1.2,8.6,3.5,12.3L0.6,46.3l11.1-3c3.5,2,7.4,3,11.4,3C36,46.4,46.4,36,46.4,23.2    S36,0,23.2,0z M23.2,44.4c-3.8,0-7.5-1-10.8-3L12,41.2l-8.6,2.3l2.2-8.4l-0.2-0.4C3.2,31.3,2,27.3,2,23.2C2,11.5,11.5,2,23.2,2    s21.2,9.5,21.2,21.2C44.4,34.9,34.9,44.4,23.2,44.4z M28.3,16.6l-4.9,4.9l-4.9-4.9L17,18.1L22,23L17,27.9l1.4,1.4l5-5l5,5l1.4-1.4    L24.8,23l4.9-4.9L28.3,16.6z" style="fill: rgb(255, 83, 13);" vector-effect="non-scaling-stroke"/>
	</g>
</g></g></svg>