<svg version="1.2" xmlns="http://www.w3.org/2000/svg" xmlns:xlink="http://www.w3.org/1999/xlink" overflow="visible" preserveAspectRatio="none" viewBox="-2.9959999999999987 0 56 56" width="26" height="26"><g><path xmlns:default="http://www.w3.org/2000/svg" d="M49.6,48.9c-0.2-0.3-0.5-0.4-0.8-0.6c-1.4-0.7-5.9-2.9-6.3-19c-0.2-9.1-4.6-13.5-8.2-15.5c-1.9-1.1-3.9-1.7-5.6-2.1  c1.4-1.2,2.3-3,2.3-5C31,3,28,0,24.2,0c-3.8,0-6.8,3-6.8,6.7c0,2,0.9,3.8,2.3,5C8.8,14,7.5,25.6,7.4,29.4c-0.1,4-0.4,16.1-6.3,19  c-0.3,0.2-0.6,0.3-0.8,0.6L0,49.4L0.3,50c0.3,0.7,0.4,0.9,7,0.9c3.2,0,7.2,0,10.6-0.1c0.9,3.1,3.8,5.2,7.2,5.2  c3.3,0,6.1-2.1,7.1-5.1c3.4,0.1,7.3,0.2,10.5,0.2c0,0,0,0,0,0c6.6,0,6.7-0.4,7-1l0.3-0.8L49.6,48.9z M19.5,6.7  c0-2.6,2.1-4.7,4.8-4.7C26.9,2,29,4.1,29,6.7c0,2.3-1.6,4.1-3.7,4.6c0,0-0.1,0-0.1,0h-0.1c-0.3,0-0.8,0-1.4,0c-0.2,0-0.3,0-0.4,0  C21.1,10.9,19.5,9,19.5,6.7z M25.1,54c-2.2,0-4.1-1.3-5-3.3c2.2,0,4-0.1,4.9-0.1c1,0,2.8,0.1,5.1,0.2C29.1,52.7,27.2,54,25.1,54z   M42.7,49.2C42.7,49.2,42.7,49.2,42.7,49.2c-6.1,0-15.1-0.4-17.7-0.5c-2.6,0.1-11.5,0.2-17.7,0.2c-1.3,0-2.4-0.1-3.2-0.1  c2.2-2,5-6.8,5.3-19.3c0.4-14.2,9.8-16,14-16c0.2,0,0.4,0,0.6,0l0,0l1.1,0c2.5,0,15,0.8,15.4,16c0.3,12.5,3.1,17.4,5.3,19.4  C45.1,49,44,49.2,42.7,49.2z" vector-effect="non-scaling-stroke"/></g></svg>