<svg version="1.2" xmlns="http://www.w3.org/2000/svg" xmlns:xlink="http://www.w3.org/1999/xlink" overflow="visible" preserveAspectRatio="none" viewBox="0 0 26 26" xml:space="preserve" height="104" width="104" y="0px" x="0px" id="Layer_1_1565892048459"><g transform="translate(1, 1)"><path d="M23.3,6.9h-3l-0.5-3.8c0-0.4-0.4-0.6-0.7-0.6L0.6,4.8C0.2,4.8,0,5.2,0,5.6l1.6,13.1c0,0.2,0.1,0.3,0.3,0.5  c0.1,0.1,0.3,0.1,0.4,0.1c0,0,0.1,0,0.1,0L4,19v1.8c0,0.4,0.3,0.7,0.7,0.7h18.6c0.4,0,0.7-0.3,0.7-0.7v-3.6v-1.2V7.6  C24,7.2,23.7,6.9,23.3,6.9z M21.9,16.7h-3.3L16.4,15l2.9-2.9l3.9,4v0.6H21.9z M17.3,16.7H5.4l6-4.6L17.3,16.7z M23.2,14.9l-3.7-3.7  c-0.1-0.1-0.2-0.1-0.3-0.1h0c-0.1,0-0.2,0-0.3,0.1l-3.2,3.2l-4.1-3.2c-0.1-0.1-0.3-0.1-0.5,0l-6.3,4.9V7.7h18.4V14.9z M2.4,18.4  L0.8,5.6l18.2-2.2l0.4,3.5H4.7C4.3,6.9,4,7.2,4,7.6v10.6L2.4,18.4z M4.8,20.6v-3.1h13.6h3.4h1.3v3.1H4.8z M14.7,12  c0.8,0,1.4-0.6,1.4-1.4c0-0.8-0.6-1.4-1.4-1.4s-1.4,0.6-1.4,1.4C13.3,11.3,13.9,12,14.7,12z M14.7,9.9c0.4,0,0.6,0.3,0.6,0.6  s-0.3,0.6-0.6,0.6s-0.6-0.3-0.6-0.6S14.4,9.9,14.7,9.9z" vector-effect="non-scaling-stroke" style="fill: rgb(181, 201, 213);"/></g></svg>