<svg version="1.2" xmlns="http://www.w3.org/2000/svg" xmlns:xlink="http://www.w3.org/1999/xlink" overflow="visible" preserveAspectRatio="none" viewBox="0 0 72 72" xml:space="preserve" height="26" width="26" y="0px" x="0px" id="Layer_1_1561490166775"><g transform="translate(1, 1)"><path d="M36.9,12.8c-0.2,0-0.4,0-0.5-0.1c-0.3-0.1-0.5-0.4-0.6-0.7s-0.1-0.6,0-0.9l4.6-9.8c0.2-0.4,0.6-0.7,1.1-0.7  c0.2,0,0.3,0,0.5,0.1c0.3,0.1,0.5,0.4,0.6,0.7c0.1,0.3,0.1,0.6,0,0.9L38.1,12c-0.1,0.1-0.1,0.2-0.2,0.3  C37.6,12.6,37.3,12.8,36.9,12.8L36.9,12.8z" vector-effect="non-scaling-stroke"/><path d="M53.2,29c-0.5,0-0.9-0.3-1.1-0.7c-0.1-0.3-0.2-0.6,0-0.9s0.3-0.6,0.6-0.7l10-4.7l0,0c0.1,0,0.2,0,0.3,0  c0.5,0,0.9,0.3,1.1,0.7c0.1,0.3,0.2,0.6,0,0.9c-0.1,0.3-0.3,0.6-0.6,0.7l-9.8,4.6C53.5,29,53.4,29,53.2,29z" vector-effect="non-scaling-stroke"/><path d="M45,20.9c-0.3,0-0.7-0.1-0.9-0.4c-0.5-0.5-0.4-1.3,0-1.7l7.2-7.2c0.2-0.2,0.5-0.3,0.8-0.3s0.6,0.1,0.8,0.3  c0.5,0.5,0.5,1.2,0,1.7l-7.2,7.2C45.7,20.8,45.4,20.9,45,20.9L45,20.9z" vector-effect="non-scaling-stroke"/><path d="M37.8,69.6c-0.4,0-0.7-0.1-1-0.2l-16.5-7.7c-0.8,0.6-1.8,0.9-2.8,0.9c-1,0-2-0.3-2.8-0.9c-1.1,0.5-2.3,0.7-3.6,0.7  c-1.3,0-2.5-0.3-3.7-0.8C3,59.6,1,54.4,3,49.9c-1.3-2-1.1-4.6,0.6-6.3L16.3,31c0.3-0.3,0.8-0.5,1.3-0.5c0,0,0,0,0.1,0  c5.9-6.2,6.5-11.8,6.7-19.8c0-1,0.6-1.8,1.5-2.2c0.3-0.1,0.6-0.2,0.9-0.2c0.6,0,1.2,0.3,1.7,0.7l27.3,27.3c0.7,0.7,0.9,1.7,0.5,2.6  c-0.4,0.9-1.2,1.5-2.2,1.5c-7.9,0.2-13.6,0.7-19.8,6.7c0,0.5-0.2,1-0.5,1.3l-1,1l3,1.4c0.2,0.1,0.4,0.2,0.5,0.4  c0.3,0.3,0.5,0.8,0.5,1.3s-0.2,0.9-0.5,1.3l-0.8,0.8l10.2,4.8c0.2,0.1,0.4,0.2,0.5,0.4c0.3,0.3,0.5,0.8,0.5,1.3  c0,0.5-0.2,0.9-0.5,1.3l-6.7,6.7C39,69.4,38.4,69.6,37.8,69.6L37.8,69.6z M37.8,67.2l6-6l-15.5-7.2l-6,6L37.8,67.2z M15.8,59.4  c0.5,0.5,1.1,0.7,1.8,0.7s1.3-0.3,1.8-0.7l12.3-12.3l-14-14L5.3,45.4c-1,1-1,2.5,0,3.5L15.8,59.4L15.8,59.4z M4.9,52  c-0.5,2.2,0.1,4.5,1.7,6.1c1.2,1.2,2.9,1.9,4.6,1.9c0.5,0,1-0.1,1.5-0.2L4.9,52z M33.1,53.4l0.8-0.8l-3-1.4L30.1,52L33.1,53.4z   M32.9,45c6.6-6.2,12.9-6.8,20.9-7L26.7,10.9c-0.2,8-0.8,14.3-7,20.9L32.9,45z" vector-effect="non-scaling-stroke"/></g></svg>