<svg version="1.2" xmlns="http://www.w3.org/2000/svg" xmlns:xlink="http://www.w3.org/1999/xlink" overflow="visible"
     preserveAspectRatio="none" viewBox="0 0 72 72" xml:space="preserve" height="24" width="24" y="0px" x="0px"
     id="Layer_1_1575030705442"><g transform="translate(1, 1)"><path d="M63.8,62c-0.4-0.6-0.8-1.1-0.9-1.5c0-0.1,0-0.1,0-0.1c4.3-4.8,6.6-11,6.6-17.5c0-11.7-7.6-21.7-18.2-25.1  C47.6,7.6,37.8,0.3,26.4,0.3C11.8,0.3,0,12.2,0,26.7c0,6.5,2.3,12.7,6.6,17.5c0,0,0,0,0,0.1c-0.2,0.4-0.5,1-0.9,1.6  c-0.6,0.7-2,2.6-3.7,4.1c-0.4,0.4-0.6,1-0.4,1.5c0.2,0.6,0.7,1,1.2,1c0,0,0,0,0,0c0.7,0.1,1.3,0.1,2,0.1c3,0,5.4-0.5,7.4-1.6  c0.2-0.2,0.4-0.3,0.7-0.4l0.3-0.2c0.1,0,0.3-0.1,0.7-0.4c1.4,0.7,2.8,1.3,4.3,1.8C21.8,61.9,31.6,69.2,43,69.2  c4.3,0,8.7-1.1,12.6-3.1c0.4,0.3,0.6,0.4,0.7,0.4l0.3,0.2c0.2,0.1,0.5,0.3,0.7,0.5c1.9,1.1,4.3,1.6,7.3,1.6c0.6,0,1.3,0,1.9-0.1  c0.6,0,1.1-0.4,1.3-1c0.2-0.5,0-1.1-0.4-1.5C65.8,64.6,64.3,62.8,63.8,62z M14.8,47.1c-0.1-0.1-0.3-0.2-0.4-0.2c0,0,0,0,0,0  c-0.2-0.1-0.5-0.1-0.7-0.1c-0.5,0-1,0.2-1.6,0.6c0,0-0.6,0.4-0.6,0.5c-0.2,0.2-0.5,0.3-0.8,0.5c-1.2,0.7-2.6,1-4.4,1.2  c2-2.3,4.2-5.4,2.7-7c-4-4.3-6.2-9.9-6.2-15.9c0-13,10.5-23.5,23.5-23.5c9.5,0,17.6,5.6,21.4,13.7c-1.5-0.3-3.1-0.4-4.7-0.4  c-14.6,0-26.4,11.9-26.4,26.4c0,1.8,0.2,3.6,0.6,5.4C16.4,47.9,15.6,47.5,14.8,47.1z M49.9,26.7c0,13-10.5,23.5-23.5,23.5  c-2,0-4-0.3-5.9-0.7c-0.6-2.1-0.9-4.3-0.9-6.6c0-13,10.5-23.5,23.5-23.5c2,0,4,0.3,5.9,0.7C49.5,22.2,49.9,24.4,49.9,26.7z   M58.6,64.5c-0.3-0.2-0.5-0.3-0.8-0.4c-0.1-0.1-0.7-0.5-0.8-0.6c-0.5-0.3-1-0.6-1.5-0.6c-0.2,0-0.5,0-0.6,0.1  c-0.2,0-0.4,0.1-0.4,0.2c-3.5,2-7.5,3.1-11.6,3.1c-9.5,0-17.6-5.6-21.4-13.7c1.6,0.3,3.1,0.4,4.7,0.4c14.6,0,26.4-11.8,26.4-26.3  c0-1.9-0.2-3.8-0.6-5.6c8.4,3.6,14.3,11.9,14.3,21.6c0,5.9-2.2,11.5-6.2,15.9c-1.5,1.7,0.7,4.7,2.7,7C61.3,65.6,59.8,65.2,58.6,64.5  z M29.8,34.8c0,1.2-0.9,2.1-2.1,2.1s-2.1-0.9-2.1-2.1s0.9-2.1,2.1-2.1S29.8,33.7,29.8,34.8z M36.5,34.8c0,1.2-0.9,2.1-2.1,2.1  c-1.2,0-2.1-0.9-2.1-2.1s0.9-2.1,2.1-2.1C35.6,32.7,36.5,33.7,36.5,34.8z M43.2,34.8c0,1.2-0.9,2.1-2.1,2.1C40,36.9,39,36,39,34.8  s0.9-2.1,2.1-2.1C42.3,32.7,43.2,33.7,43.2,34.8z" vector-effect="non-scaling-stroke" style="fill: #fff"/></g></svg>
