<svg version="1.2" xmlns="http://www.w3.org/2000/svg" xmlns:xlink="http://www.w3.org/1999/xlink" overflow="visible" preserveAspectRatio="none" viewBox="0 0 72 72" xml:space="preserve" height="24" width="24" y="0px" x="0px" id="Layer_1_1561489697331"><g transform="translate(1, 1)"><g>
	<g>
		<path d="M35,66.7c-5.4,0-10.8-1.4-15.5-3.9c0,0-0.8,0.6-0.9,0.6c-0.5,0.3-0.9,0.5-1.3,0.8c-2.4,1.3-5.3,1.9-8.9,1.9    c-0.8,0-1.6,0-2.4-0.1c-0.6,0-1.1-0.4-1.3-1s0-1.2,0.4-1.6c1.7-1.5,3.4-3.5,4.6-5.1c0.6-0.8,1-1.5,1.2-2c0-0.1,0-0.1,0.1-0.2    c-5.3-5.9-8.2-13.5-8.2-21.5C2.8,16.7,17.2,2.3,35,2.3s32.3,14.5,32.3,32.3S52.8,66.7,35,66.7z M19.5,59.6c0.2,0,0.5,0,0.7,0.1    c0.1,0,0.3,0.1,0.4,0.2C25,62.4,30,63.7,35,63.7c16.1,0,29.2-13.1,29.2-29.2S51.1,5.3,35,5.3S5.8,18.4,5.8,34.5    c0,7.3,2.7,14.3,7.7,19.7c1.9,2.1-1.7,6.5-3.7,8.8c2.5-0.1,4.5-0.6,6.1-1.5c0.4-0.2,0.7-0.4,1-0.6c0.1-0.1,0.8-0.6,0.8-0.6    C18.4,59.9,18.9,59.6,19.5,59.6z" vector-effect="non-scaling-stroke"/>
	</g>
	<g>
		<path d="M45.6,50.5c-0.3,0-0.6-0.1-0.9-0.3l-9.4-6.5L26,50.2c-0.3,0.2-0.6,0.3-0.9,0.3c-0.5,0-0.9-0.2-1.2-0.6    c-0.3-0.4-0.4-0.9-0.2-1.3L27,37.6l-9.1-6.9c-0.5-0.4-0.7-1.1-0.5-1.7c0.2-0.6,0.8-1,1.4-1.1l11.4-0.2l3.7-10.8    c0.2-0.6,0.8-1,1.4-1s1.2,0.4,1.4,1l3.7,10.8l11.4,0.2c0.7,0,1.2,0.4,1.4,1.1c0.2,0.6,0,1.3-0.5,1.7l-9.1,6.9L47,48.5    c0.1,0.5,0.1,1-0.2,1.3C46.5,50.2,46.1,50.5,45.6,50.5z M35.3,40.3c0.3,0,0.6,0.1,0.9,0.3l6.6,4.6l-2.3-7.7    c-0.2-0.6,0-1.3,0.5-1.7l6.4-4.9l-8.1-0.2c-0.6,0-1.2-0.4-1.4-1l-2.7-7.6l-2.7,7.6c-0.2,0.6-0.8,1-1.4,1l-8.1,0.2l6.4,4.9    c0.5,0.4,0.7,1,0.5,1.7l-2.3,7.7l6.6-4.6C34.7,40.4,35,40.3,35.3,40.3z" vector-effect="non-scaling-stroke"/>
	</g>
</g></g></svg>