<svg version="1.2" xmlns="http://www.w3.org/2000/svg" overflow="visible" preserveAspectRatio="none" viewBox="0 0 102 102" height="20" width="20"><path d="M27.1 31.9C27.1 45.2 38 56 51.3 56s24.1-10.8 24.1-24.1S64.5 7.8 51.3 7.8 27.1 18.6 27.1 31.9zm40.2 0c0 8.9-7.2 16.1-16.1 16.1s-16.1-7.2-16.1-16.1 7.2-16.1 16.1-16.1S67.3 23 67.3 31.9zm-54 62.7c2.2 0 4-1.8 4-4 0-6.4 3.1-12.3 8.2-15.9 7.6-5.2 16.5-8 25.8-8s18.2 2.8 25.8 8.1c5.1 3.6 8.2 9.5 8.2 15.9 0 2.2 1.8 4 4 4s4-1.8 4-4c0-9-4.4-17.3-11.6-22.4-9-6.3-19.5-9.6-30.4-9.6S29.9 62 20.9 68.2C13.6 73.3 9.3 81.7 9.3 90.6c0 2.3 1.8 4 4 4z" vector-effect="non-scaling-stroke" fill="#6b94ac"/></svg>