<svg version="1.2" xmlns="http://www.w3.org/2000/svg" xmlns:xlink="http://www.w3.org/1999/xlink" overflow="visible" preserveAspectRatio="none" viewBox="0 0 102 102" xml:space="preserve" height="32" width="32" y="0px" x="0px" id="Layer_1_1570204059718"><g transform="translate(1, 1)"><g>
	<path d="M26.1,30.9C26.1,44.2,37,55,50.3,55s24.1-10.8,24.1-24.1S63.5,6.8,50.3,6.8S26.1,17.6,26.1,30.9z M66.3,30.9   c0,8.9-7.2,16.1-16.1,16.1s-16.1-7.2-16.1-16.1s7.2-16.1,16.1-16.1S66.3,22,66.3,30.9z" vector-effect="non-scaling-stroke" style="fill: rgb(107, 148, 172);"/>
	<path d="M12.3,93.6c2.2,0,4-1.8,4-4c0-6.4,3.1-12.3,8.2-15.9c7.6-5.2,16.5-8,25.8-8s18.2,2.8,25.8,8.1c5.1,3.6,8.2,9.5,8.2,15.9   c0,2.2,1.8,4,4,4s4-1.8,4-4c0-9-4.4-17.3-11.6-22.4c-9-6.3-19.5-9.6-30.4-9.6S28.9,61,19.9,67.2C12.6,72.3,8.3,80.7,8.3,89.6   C8.3,91.9,10.1,93.6,12.3,93.6z" vector-effect="non-scaling-stroke" style="fill: rgb(107, 148, 172);"/>
</g></g></svg>