<svg version="1.2" xmlns="http://www.w3.org/2000/svg" xmlns:xlink="http://www.w3.org/1999/xlink" overflow="visible" preserveAspectRatio="none" viewBox="0 0 54 56" xml:space="preserve" height="25" width="24" y="0px" x="0px" id="Layer_1_1561489306803"><g transform="translate(1, 1)"><path d="M26,0c-8.8,0-16,7.2-16,16v3H5c-2.8,0-5,2.2-5,5v14c0,2.8,2.2,5,5,5h6c0.6,0,1-0.4,1-1V16c0-7.8,6.2-14,14-14s14,6.2,14,14  v25.4L30,46c-0.9-1.2-2.4-2-4-2c-2.7,0-5,2.3-5,5s2.3,5,5,5s5-2.3,5-5c0-0.4-0.1-0.8-0.2-1.2L41.2,43H47c2.8,0,5-2.2,5-5V24  c0-2.8-2.2-5-5-5h-5v-3C42,7.2,34.8,0,26,0z M5,21h5v20H5c-1.7,0-3-1.3-3-3V24C2,22.3,3.3,21,5,21z M42,21h5c1.7,0,3,1.3,3,3v14  c0,1.7-1.3,3-3,3h-5V21z M26,46c1.7,0,3,1.3,3,3s-1.3,3-3,3s-3-1.3-3-3S24.3,46,26,46z" vector-effect="non-scaling-stroke"/></g></svg>