<svg version="1.2" xmlns="http://www.w3.org/2000/svg" xmlns:xlink="http://www.w3.org/1999/xlink" overflow="visible" preserveAspectRatio="none" viewBox="0 0 19.600000381469727 24.100000381469727" xml:space="preserve" height="16" width="12" y="0px" x="0px" id="Layer_1_1563387917310"><g transform="translate(1, 1)"><path d="M2.3,22.1c-0.6,0-1.1-0.5-1.1-1.1V6.6L1,6.6c-0.6,0-1-0.5-1-1.1c0-0.6,0.5-1.1,1.1-1.1h3.1l0-0.2C4.4,1.9,6.4,0,8.8,0  c2.4,0,4.4,1.9,4.6,4.3l0,0.2h3.1c0.6,0,1.1,0.5,1.1,1.1c0,0.6-0.4,1-1,1.1l-0.2,0v14.5c0,0.6-0.5,1.1-1.1,1.1H2.3z M3.3,20l11,0  V6.6h-11V20z M8.8,2.1C7.6,2.1,6.5,3,6.3,4.2l0,0.2h5l0-0.2C11,3,10,2.1,8.8,2.1z M10.8,17.4c-0.6,0-1.1-0.5-1.1-1.1v-5.9  c0-0.6,0.5-1.1,1.1-1.1c0.6,0,1.1,0.5,1.1,1.1v5.9C11.9,16.9,11.4,17.4,10.8,17.4z M6.7,17.4c-0.6,0-1.1-0.5-1.1-1.1v-5.9  c0-0.6,0.5-1.1,1.1-1.1c0.6,0,1.1,0.5,1.1,1.1v5.9C7.8,16.9,7.3,17.4,6.7,17.4z" vector-effect="non-scaling-stroke"/></g></svg>