<svg version="1.2" xmlns="http://www.w3.org/2000/svg" xmlns:xlink="http://www.w3.org/1999/xlink" overflow="visible" preserveAspectRatio="none" viewBox="0 0 22.100000381469727 22.100000381469727" xml:space="preserve" height="20" width="20" y="0px" x="0px" id="Layer_1_1572357401611"><g transform="translate(1, 1)"><path d="M10,0C4.5,0,0,4.5,0,10c0,5.5,4.5,10,10,10c5.5,0,10-4.5,10-10C20.1,4.5,15.6,0,10,0z M10,18c-4.4,0-8-3.6-8-8  c0-4.4,3.6-8,8-8c4.4,0,8,3.6,8,8C18,14.4,14.4,18,10,18z M9,8.3v6.1C9,14.7,9.3,15,9.7,15h0.7c0.4,0,0.6-0.3,0.6-0.6V8.3l2.9,2.2  c0.3,0.2,0.7,0.2,0.9-0.1l0.4-0.5c0.2-0.3,0.2-0.7-0.1-0.9L10,5L4.9,9C4.7,9.3,4.6,9.7,4.8,9.9l0.4,0.5c0.2,0.3,0.6,0.3,0.9,0.1  L9,8.3z" vector-effect="non-scaling-stroke" style="fill: rgb(120, 204, 84);"/></g></svg>