<svg version="1.2" xmlns="http://www.w3.org/2000/svg" xmlns:xlink="http://www.w3.org/1999/xlink" overflow="visible" preserveAspectRatio="none" viewBox="0 0 72 72" xml:space="preserve" height="24" width="24" y="0px" x="0px" id="Layer_1_1561490212403"><g transform="translate(1, 1)"><path d="M59.3,30.6c1.4-2.2,2.2-4.7,2.2-7.5c0-7.7-6.3-14-14-14c0,0,0,0,0,0c-3.9,0-7.6,1.6-10.2,4.4c-0.9-0.2-1.8-0.3-2.7-0.3  c-0.8,0-1.6,0.1-2.3,0.2C29.5,10.6,25.9,9,22,9c-7.7,0-14,6.3-14,14c0,2.8,0.8,5.3,2.2,7.5C4.5,34.5,1,41,1,48c0,2,0.3,3.9,0.8,5.8  c0.2,0.6,0.7,1,1.3,1h10.6c0.1,1.1,0.4,2.1,0.7,3.2c0.2,0.6,0.7,1,1.3,1l37.9,0c0.6,0,1.1-0.4,1.3-1c0.3-1,0.5-2.1,0.7-3.2h11  c0.6,0,1.1-0.4,1.3-1c0.5-1.9,0.8-3.9,0.8-5.8C68.5,41,65,34.5,59.3,30.6z M47.5,11.7c6.3,0,11.4,5.1,11.4,11.4  c0,6.3-5.1,11.4-11.4,11.4c-0.3,0-0.6,0-0.9,0c1.3-2.1,2-4.6,2-7.2c0-5.7-3.5-10.7-8.4-12.9C42.2,12.6,44.8,11.7,47.5,11.7z   M45.9,27.2c0,6.3-5.1,11.4-11.4,11.4c-6.3,0-11.4-5.1-11.4-11.4c0-6.3,5.1-11.4,11.4-11.4C40.8,15.8,45.9,20.9,45.9,27.2z M22,11.7  c2.6,0,5.2,0.9,7.2,2.6c-5.1,2.1-8.7,7.1-8.7,13c0,2.6,0.7,5.1,2,7.2c-0.2,0-0.3,0-0.5,0c-6.3,0-11.4-5.1-11.4-11.4  C10.6,16.8,15.7,11.7,22,11.7z M4.1,52.1c-0.3-1.4-0.5-2.8-0.5-4.2c0-6.1,3.1-11.9,8.2-15.3c2.1,2.2,5,3.8,8.2,4.3  c-4.1,3.9-6.5,9.4-6.5,15.2c0,0,0,0,0,0L4.1,52.1L4.1,52.1z M52.4,56.3l-35.8,0c-0.3-1.4-0.5-2.8-0.5-4.2c0-6.1,3-11.7,8-15.2  c0.1,0,0.2,0,0.3,0c2.6,2.7,6.2,4.3,10.1,4.3c4,0,7.6-1.7,10.2-4.4c0,0,0,0,0.1,0c5,3.4,8.1,9.1,8.1,15.3c0,0.5,0,1-0.1,1.5  C52.8,54.5,52.6,55.4,52.4,56.3z M65.4,52.1l-9.8,0c0,0,0,0,0,0c0-5.7-2.4-11.2-6.4-15.1c3.4-0.4,6.3-2,8.5-4.3  c5.1,3.4,8.2,9.2,8.2,15.3C65.9,49.4,65.7,50.8,65.4,52.1z" vector-effect="non-scaling-stroke"/></g></svg>