<svg version="1.2" xmlns="http://www.w3.org/2000/svg" xmlns:xlink="http://www.w3.org/1999/xlink" overflow="visible" preserveAspectRatio="none" viewBox="0 0 72 72" xml:space="preserve" height="24" width="24" y="0px" x="0px" id="Layer_1_1561489036982"><g transform="translate(1, 1)"><g>
	<path d="M-0.3,63.4V7.5h70.1v55.9H-0.3z M66.8,60.4V10.5h-64v49.8H66.8z M26.7,49.1c-0.7,0-1.4-0.5-1.5-1.2c0-0.2,0-0.2,0-0.3   l0-24.3c0-0.7,0.5-1.4,1.2-1.5c0.1,0,0.2,0,0.3,0c0.3,0,0.5,0.1,0.8,0.2l20.3,12.2c0.4,0.3,0.7,0.8,0.7,1.3c0,0.5-0.2,1-0.6,1.3   L27.5,48.9C27.2,49.1,27,49.1,26.7,49.1L26.7,49.1z M28.2,44.9l15.9-9.5l-15.9-9.5V44.9z" vector-effect="non-scaling-stroke" />
</g></g></svg>